<?xml version="1.0" encoding="UTF-8"?>
<svg xmlns="http://www.w3.org/2000/svg" xmlns:xlink="http://www.w3.org/1999/xlink" width="16px" height="16px" viewBox="0 0 16 16" version="1.1">
<g id="surface1">
<path style="fill-rule:nonzero;fill:rgb(100%,100%,100%);fill-opacity:1;stroke-width:3;stroke-linecap:butt;stroke-linejoin:miter;stroke:rgb(12.54902%,35.294119%,60.000002%);stroke-opacity:1;stroke-miterlimit:4;" d="M 35.996094 19 C 35.996094 9.611328 28.388672 2.003906 19 2.003906 C 9.611328 2.003906 2.003906 9.611328 2.003906 19 C 2.003906 28.388672 9.611328 35.996094 19 35.996094 C 28.388672 35.996094 35.996094 28.388672 35.996094 19 Z M 35.996094 19 " transform="matrix(0.421053,0,0,0.421053,0,0)"/>
<path style="fill-rule:nonzero;fill:rgb(12.54902%,35.294119%,60.000002%);fill-opacity:0.129412;stroke-width:1.2;stroke-linecap:butt;stroke-linejoin:miter;stroke:rgb(12.54902%,35.294119%,60.000002%);stroke-opacity:1;stroke-miterlimit:4;" d="M 32.999512 19 C 32.999512 11.271973 26.728027 5.000488 19 5.000488 C 11.271973 5.000488 5.000488 11.271973 5.000488 19 C 5.000488 26.728027 11.271973 32.999512 19 32.999512 C 26.728027 32.999512 32.999512 26.728027 32.999512 19 Z M 32.999512 19 " transform="matrix(0.421053,0,0,0.421053,0,0)"/>
<path style="fill-rule:nonzero;fill:rgb(12.54902%,35.294119%,60.000002%);fill-opacity:0.0705882;stroke-width:0.7;stroke-linecap:butt;stroke-linejoin:miter;stroke:rgb(12.54902%,35.294119%,60.000002%);stroke-opacity:1;stroke-miterlimit:4;" d="M 30.503906 19 C 30.503906 12.64502 25.35498 7.496094 19 7.496094 C 12.64502 7.496094 7.496094 12.64502 7.496094 19 C 7.496094 25.35498 12.64502 30.503906 19 30.503906 C 25.35498 30.503906 30.503906 25.35498 30.503906 19 Z M 30.503906 19 " transform="matrix(0.421053,0,0,0.421053,0,0)"/>
<path style=" stroke:none;fill-rule:nonzero;fill:rgb(12.54902%,35.294119%,60.000002%);fill-opacity:1;" d="M 8 3.367188 C 8.210938 3.367188 8.378906 3.539062 8.378906 3.746094 L 8.378906 7.621094 C 8.378906 7.832031 8.210938 8 8 8 C 7.789062 8 7.621094 7.832031 7.621094 7.621094 L 7.621094 3.746094 C 7.621094 3.539062 7.789062 3.367188 8 3.367188 Z M 8 3.367188 "/>
<path style=" stroke:none;fill-rule:nonzero;fill:rgb(12.54902%,35.294119%,60.000002%);fill-opacity:1;" d="M 8 8 C 8.179688 8.105469 8.242188 8.335938 8.140625 8.519531 L 6.9375 10.597656 C 6.835938 10.777344 6.601562 10.839844 6.421875 10.734375 C 6.238281 10.628906 6.175781 10.398438 6.28125 10.21875 L 7.480469 8.140625 C 7.585938 7.957031 7.820312 7.894531 8 8 Z M 8 8 "/>
<path style="fill-rule:nonzero;fill:rgb(12.54902%,35.294119%,60.000002%);fill-opacity:1;stroke-width:1;stroke-linecap:butt;stroke-linejoin:miter;stroke:rgb(100%,100%,100%);stroke-opacity:1;stroke-miterlimit:4;" d="M 21.495605 19 C 21.495605 17.617676 20.382324 16.504395 19 16.504395 C 17.617676 16.504395 16.504395 17.617676 16.504395 19 C 16.504395 20.382324 17.617676 21.495605 19 21.495605 C 20.382324 21.495605 21.495605 20.382324 21.495605 19 Z M 21.495605 19 " transform="matrix(0.421053,0,0,0.421053,0,0)"/>
</g>
</svg>
